<?xml version="1.0" encoding="UTF-8"?>
<svg id="Logo" xmlns="http://www.w3.org/2000/svg" viewBox="0 0 500.18 252.14">
  <defs>
    <style>
      .cls-1 {
        fill: #fff;
      }
    </style>
  </defs>
  <g id="Dod">
    <path class="cls-1" d="M130.15,141.73c4.4,5.94,5.72,6.6,5.5,9.46-.44,3.52-2.64,5.06-7.7,5.06h-33.88c-6.16,0-7.04-2.2-7.26-8.36,0-.66-.88-1.1-1.32-.66-3.52,3.52-13.42,11.22-29.04,11.22C21.47,158.45,.13,132.49,.13,102.57S23.67,42.51,59.97,47.57c6.82,.88,14.96,4.4,20.68,9.24,1.32,1.1,3.52,1.54,3.52-1.54v-12.76c0-8.8-.22-11.44-3.08-15.84-4.4-5.72-5.72-6.38-5.5-9.46,.44-3.96,3.52-5.06,8.58-6.82,7.92-2.86,29.7-9.24,29.7-9.24,13.42-3.96,13.2,2.86,13.2,11.66V125.89c0,8.8,.22,11.66,3.08,15.84Zm-46.86-42.02c-2.86-21.12-14.74-37.4-26.18-35.86-11.44,1.76-18.26,20.68-15.18,41.8,3.08,21.34,14.96,37.62,26.4,35.86,11.44-1.54,18.04-20.46,14.96-41.8Z"/>
    <path class="cls-1" d="M266.33,102.57c0,29.92-25.96,55.88-62.48,55.88s-62.48-25.96-62.48-55.88,25.96-55.66,62.48-55.66,62.48,25.96,62.48,55.66Zm-41.8-2.86c-3.08-21.12-14.74-37.4-26.18-35.86-11.44,1.76-18.26,20.68-15.18,41.8,2.86,21.34,14.74,37.62,26.18,35.86,11.44-1.54,18.26-20.46,15.18-41.8Z"/>
    <path class="cls-1" d="M402.95,141.73c4.4,5.94,5.72,6.6,5.5,9.46-.44,3.52-2.64,5.06-7.7,5.06h-33.88c-6.16,0-7.04-2.2-7.26-8.36,0-.66-.88-1.1-1.32-.66-3.52,3.52-13.42,11.22-29.04,11.22-34.98,0-56.32-25.96-56.32-55.88s23.54-60.06,59.84-55c6.82,.88,14.96,4.4,20.68,9.24,1.32,1.1,3.52,1.54,3.52-1.54v-12.76c0-8.8-.22-11.44-3.08-15.84-4.4-5.72-5.72-6.38-5.5-9.46,.44-3.96,3.52-5.06,8.58-6.82,7.92-2.86,29.7-9.24,29.7-9.24,13.42-3.96,13.2,2.86,13.2,11.66V125.89c0,8.8,.22,11.66,3.08,15.84Zm-46.86-42.02c-2.86-21.12-14.74-37.4-26.18-35.86-11.44,1.76-18.26,20.68-15.18,41.8,3.08,21.34,14.96,37.62,26.4,35.86,11.44-1.54,18.04-20.46,14.96-41.8Z"/>
  </g>
  <g id="Production">
    <path class="cls-1" d="M.08,251.25l-.08-52.65H18.79c3.08,0,5.93,.68,8.55,2.03,2.62,1.35,4.7,3.16,6.24,5.43,1.54,2.27,2.31,4.75,2.31,7.45s-.77,5.12-2.31,7.41c-1.54,2.3-3.62,4.12-6.24,5.47-2.62,1.35-5.47,2.03-8.55,2.03H3.73v22.84H.08Zm3.65-26.65h15.07c2.43,0,4.67-.5,6.72-1.5,2.05-1,3.69-2.35,4.9-4.05,1.21-1.7,1.82-3.55,1.82-5.55s-.61-3.93-1.82-5.63c-1.22-1.7-2.85-3.05-4.9-4.05-2.05-1-4.29-1.5-6.72-1.5H3.65l.08,22.27Z"/>
    <path class="cls-1" d="M79.3,251.25l-21.87-26.57h6.48c4,0,7.24-.51,9.72-1.54,1.83-.86,3.43-2.17,4.78-3.93,1.35-1.75,2.02-3.69,2.02-5.79,0-1.89-.57-3.69-1.7-5.39-1.13-1.7-2.75-3.09-4.86-4.17s-4.54-1.62-7.29-1.62h-14.74v49h-3.65v-52.65h18.39c2.48,0,4.81,.39,6.97,1.17,2.16,.78,4.05,1.9,5.67,3.36,1.57,1.41,2.77,3,3.6,4.78,.84,1.78,1.26,3.62,1.26,5.51,0,2.97-.89,5.63-2.67,7.98-1.78,2.35-3.89,4.04-6.32,5.06-1.67,.76-3.31,1.23-4.9,1.42-1.59,.19-3.28,.28-5.06,.28l19.04,23.08h-4.86Z"/>
    <path class="cls-1" d="M120.77,251.81c-4.81,0-9.26-1.2-13.37-3.6-4.1-2.4-7.34-5.67-9.72-9.8-2.38-4.13-3.56-8.63-3.56-13.49s1.19-9.36,3.56-13.49c2.38-4.13,5.62-7.4,9.72-9.8,4.1-2.4,8.56-3.6,13.37-3.6s9.26,1.2,13.36,3.6c4.1,2.4,7.34,5.67,9.72,9.8,2.38,4.13,3.56,8.63,3.56,13.49s-1.19,9.36-3.56,13.49c-2.38,4.13-5.62,7.4-9.72,9.8-4.1,2.4-8.56,3.6-13.36,3.6Zm0-50.06c-4.16,0-7.99,1.04-11.5,3.12-3.51,2.08-6.31,4.89-8.38,8.42-2.08,3.54-3.12,7.41-3.12,11.62s1.04,8.09,3.12,11.62c2.08,3.54,4.87,6.35,8.38,8.42,3.51,2.08,7.34,3.12,11.5,3.12s7.99-1.04,11.5-3.12c3.51-2.08,6.29-4.89,8.34-8.42,2.05-3.54,3.08-7.41,3.08-11.62s-1.03-8.09-3.08-11.62c-2.05-3.54-4.83-6.34-8.34-8.42-3.51-2.08-7.34-3.12-11.5-3.12Z"/>
    <path class="cls-1" d="M174.31,251.25h-15.15v-52.65h15.15c3.73,0,7.18,.69,10.37,2.07,3.19,1.38,5.94,3.33,8.26,5.87,2.21,2.43,3.91,5.21,5.1,8.34,1.19,3.13,1.78,6.45,1.78,9.96s-.6,6.83-1.78,9.96c-1.19,3.13-2.89,5.94-5.1,8.42-2.32,2.59-5.08,4.58-8.26,5.95-3.19,1.38-6.64,2.07-10.37,2.07Zm-11.5-3.65h11.5c6.53,0,11.85-2.29,15.96-6.88,1.89-2.05,3.33-4.44,4.33-7.17,1-2.73,1.5-5.63,1.5-8.71s-.5-5.9-1.5-8.63c-1-2.73-2.44-5.12-4.33-7.17-4.16-4.48-9.48-6.72-15.96-6.72h-11.5v45.28Z"/>
    <path class="cls-1" d="M232.14,251.81c-2.65,0-5.2-.53-7.65-1.58-2.46-1.05-4.63-2.55-6.52-4.5-1.89-1.84-3.33-4-4.33-6.48-1-2.48-1.5-5.1-1.5-7.86v-32.8h3.65v32.8c0,2.27,.42,4.43,1.26,6.48,.84,2.05,2.01,3.83,3.52,5.35,1.57,1.57,3.35,2.77,5.35,3.6,2,.84,4.08,1.26,6.24,1.26s4.32-.42,6.32-1.26c2-.84,3.78-2.04,5.35-3.6,1.51-1.51,2.69-3.29,3.52-5.35,.84-2.05,1.26-4.21,1.26-6.48v-32.8h3.64v32.8c0,2.75-.5,5.37-1.5,7.86-1,2.48-2.44,4.64-4.33,6.48-1.89,1.94-4.05,3.44-6.48,4.5-2.43,1.05-5.02,1.58-7.78,1.58Z"/>
    <path class="cls-1" d="M290.78,251.81c-4.81,0-9.26-1.21-13.37-3.64-4.1-2.43-7.34-5.71-9.72-9.84-2.38-4.13-3.56-8.63-3.56-13.49s1.19-9.34,3.56-13.45c2.38-4.1,5.62-7.37,9.72-9.8,4.1-2.43,8.56-3.64,13.37-3.64,3.73,0,7.3,.77,10.73,2.31,3.43,1.54,6.44,3.71,9.03,6.52l-2.83,2.51c-2.16-2.43-4.71-4.32-7.65-5.67-2.94-1.35-6.03-2.03-9.27-2.03-4.16,0-7.99,1.04-11.5,3.12-3.51,2.08-6.31,4.9-8.38,8.46-2.08,3.56-3.12,7.45-3.12,11.66s1.04,8.1,3.12,11.66c2.08,3.56,4.87,6.39,8.38,8.46,3.51,2.08,7.34,3.12,11.5,3.12,3.46,0,6.74-.76,9.84-2.27s5.76-3.62,7.98-6.32l2.92,2.27c-2.54,3.19-5.62,5.66-9.23,7.41-3.62,1.75-7.45,2.63-11.5,2.63Z"/>
    <path class="cls-1" d="M365.38,198.6v3.73h-20.82v48.92h-3.73v-48.92h-20.9v-3.73h45.44Z"/>
    <path class="cls-1" d="M378.1,251.25v-52.65h3.65v52.65h-3.65Z"/>
    <path class="cls-1" d="M421.6,251.81c-4.81,0-9.26-1.2-13.37-3.6-4.1-2.4-7.34-5.67-9.72-9.8-2.38-4.13-3.56-8.63-3.56-13.49s1.19-9.36,3.56-13.49c2.38-4.13,5.62-7.4,9.72-9.8,4.1-2.4,8.56-3.6,13.37-3.6s9.26,1.2,13.37,3.6c4.1,2.4,7.34,5.67,9.72,9.8,2.38,4.13,3.56,8.63,3.56,13.49s-1.19,9.36-3.56,13.49c-2.38,4.13-5.62,7.4-9.72,9.8-4.1,2.4-8.56,3.6-13.37,3.6Zm0-50.06c-4.16,0-7.99,1.04-11.5,3.12-3.51,2.08-6.31,4.89-8.38,8.42-2.08,3.54-3.12,7.41-3.12,11.62s1.04,8.09,3.12,11.62c2.08,3.54,4.87,6.35,8.38,8.42,3.51,2.08,7.34,3.12,11.5,3.12s7.99-1.04,11.5-3.12c3.51-2.08,6.29-4.89,8.34-8.42,2.05-3.54,3.08-7.41,3.08-11.62s-1.03-8.09-3.08-11.62c-2.05-3.54-4.83-6.34-8.34-8.42-3.51-2.08-7.34-3.12-11.5-3.12Z"/>
    <path class="cls-1" d="M463.71,208.48v42.77h-3.64v-53.3l36.45,43.58v-42.93h3.64v53.54l-36.45-43.66Z"/>
  </g>
  <path id="Play" class="cls-1" d="M497.45,93.94c3.64,2.13,3.64,7.46,0,9.59l-40.9,23.98c-3.64,2.13-8.18-.53-8.18-4.8v-47.97c0-4.26,4.54-6.93,8.18-4.8l40.9,23.98Z"/>
</svg>